<svg width="970" height="365" viewBox="0 0 970 365" fill="none" xmlns="http://www.w3.org/2000/svg">
<path fill-rule="evenodd" clip-rule="evenodd" d="M0 18C0 8.05888 8.05888 0 18 0H952C961.941 0 970 8.05888 970 18V135.003C969.834 135.001 969.667 135 969.5 135C943.266 135 922 156.266 922 182.5C922 208.734 943.266 230 969.5 230C969.667 230 969.834 229.999 970 229.997V347C970 356.941 961.941 365 952 365H18C8.05889 365 0 356.941 0 347V229.997C26.0032 229.729 47 208.567 47 182.5C47 156.433 26.0032 135.271 0 135.003V18Z" fill="#D9D9D9"/>
</svg>
